<svg xmlns="http://www.w3.org/2000/svg" width="250" height="250" viewBox="0 0 250 250"><g id="a0365d86-44cc-4059-bba3-8a3274fe0b9b" data-name="Calque 2"><path d="M124.25,187.81c-4.51-9.69-7.87-17-11-23.71-3.44-7.45,9.71-14.45,13.55-6.25,3.11,6.65,9,19.82,10.94,23.7C141.77,189.61,127.69,195.21,124.25,187.81Z" style="fill:#4c5b5c"/><path d="M144.48,180.05c-5.49-11.92-9.6-21-13.36-29.16-4.2-9.16,8.86-16.38,13.53-6.3,3.79,8.19,11,24.37,13.36,29.16C162.81,183.67,148.68,189.16,144.48,180.05Z" style="fill:#4c5b5c"/><path d="M162.75,168.46c-5.55-12-9.7-21.17-13.49-29.46-4.24-9.26,8.8-16.5,13.52-6.31,3.83,8.27,11.15,24.62,13.49,29.46C181.12,172.18,167,177.66,162.75,168.46Z" style="fill:#4c5b5c"/><path d="M184.75,167.66c-2.18-4.62-8.62-18.46-8.62-18.46s4.67,2.7,9,.58a8.54,8.54,0,0,0,5-6.28s7.28,15.29,8.28,17.11c.48.86,1.47,3.38,1.8,4.07.72,1.48-10.67,6.62-13.94,6.4C185,171,185.26,168.76,184.75,167.66Z" style="fill:#4c5b5c"/><path d="M119.83,192.44c15.63,29.19,14.5,42.47,30.08,49,15.9,7.44,35-6.93,57.23-17.08,14.1-11.44,21.64-38.86,26.56-49.18,4.25-13.57,9.62-33.81,9.62-33.81s-11.17-4-17.55.87-21,30.56-21,30.56-17,3.86-23.29,14.68-1.49,24.81-3.07,26.36a3.49,3.49,0,0,1-4.09.77c-4.58-2.24-3.12-22.51,2.66-32s24.38-15.38,24.38-15.38l-3.08-7-13.63,7.1a17.52,17.52,0,0,1-6.62,10c-5.47,4-12.84,2.06-12.84,2.06s.3,6.69-8.24,10.82-13-1.42-13-1.42-1.09,5.85-9.55,8.07S119.29,191.22,119.83,192.44Z" style="fill:#4c5b5c"/></g><g id="bacebde6-9e56-46ea-97d6-09b2b6d7945e" data-name="Calque 3"><path d="M125.16,62a28.49,28.49,0,1,1,37.27-17.81" style="fill:none;stroke:#f9cb40;stroke-linecap:round;stroke-miterlimit:10;stroke-width:4px"/><path d="M135.08,35.62c-3.68,1.94-2.69,23.58-2.82,40.84-.19,24-1.16,44.67,2.54,45.37,5,1,8.45-3.5,11.82-6.94C152,109.38,157,103.82,157,103.82c2.85,6.76,6.29,15.47,9.31,22.29,5.69,12.82,9.16,23.68,17.11,19.86,8.73-4.19,1.3-15-4.82-27.19-3.37-6.72-6.3-13.88-9-19.91,0,0,8.67-.76,17.33-1.54,5.87-.53,11.62.59,11.62-4,0-4.13-12.38-13.61-27.36-28.32C157.27,51.29,139.54,33.27,135.08,35.62Z" style="fill:#ff715b"/><path d="M39.4,86.19H34.87V70.34A8.76,8.76,0,0,0,33.11,66a4.49,4.49,0,0,0-3.69-1.83,17.43,17.43,0,0,0-2.12.33,5.64,5.64,0,0,0-3.2,2,7.64,7.64,0,0,0-1.73,4.22V86.19H18V43.6h4.42V64.73a9.73,9.73,0,0,1,3.52-3.15,9.3,9.3,0,0,1,4.4-1.11,10.12,10.12,0,0,1,7.15,2.94,10.64,10.64,0,0,1,2,6.38Z" style="fill:#4c5b5c"/><path d="M80.9,86.19H76.8v-5a9.69,9.69,0,0,1-4.15,4.21,12,12,0,0,1-5.84,1.52,13,13,0,0,1-3-.33,12.67,12.67,0,0,1-3.6-1.7,11.65,11.65,0,0,1-3.9-4.59,14.52,14.52,0,0,1-.42-12.86,20.46,20.46,0,0,1,3-4.13,10.31,10.31,0,0,1,6.05-3,8.08,8.08,0,0,0,.95,0,7.54,7.54,0,0,1,.79-.06,11.52,11.52,0,0,1,5.57,1.37,11.9,11.9,0,0,1,4.27,4V60.8H80.9Zm-5.13-8.06a12,12,0,0,0,.82-4.39,10.69,10.69,0,0,0-1.42-5.49,8.44,8.44,0,0,0-4.24-3.57,11,11,0,0,0-2.4-.33l-1.63-.06a8.36,8.36,0,0,0-5.61,3.44,10.47,10.47,0,0,0-2.12,6.34,8.74,8.74,0,0,0,3.64,7.39,7.92,7.92,0,0,0,5.12,1.67,8.41,8.41,0,0,0,7.84-5Z" style="fill:#4c5b5c"/><path d="M46.61,149.36H42V130.92a2.32,2.32,0,0,0-.33-1.09c-.22-.41-.38-.72-.49-.94a5.68,5.68,0,0,0-1.8-1.26,5.23,5.23,0,0,0-2-.38,5.74,5.74,0,0,0-3.93,1.64A7.74,7.74,0,0,0,31.1,133v16.4H26.57V132.23a6.07,6.07,0,0,0-1.73-3.64,4.9,4.9,0,0,0-3.5-1.34,7.32,7.32,0,0,0-2.1.33,6.74,6.74,0,0,0-2.48,1.8,8.57,8.57,0,0,0-1.6,2.79v17.19H11V124h4.2v4.37a10.71,10.71,0,0,1,3-3.56,6.73,6.73,0,0,1,4.19-1.41h.81a7,7,0,0,1,4.44,1.53,8.62,8.62,0,0,1,2.8,4,8.6,8.6,0,0,1,3.36-4,9.1,9.1,0,0,1,5.05-1.5,8.46,8.46,0,0,1,3.63.79,7.88,7.88,0,0,1,2.92,2.49,5.59,5.59,0,0,1,1.25,2.78Z" style="fill:#ff715b"/><path d="M82.54,136.86a12.66,12.66,0,0,1-4,9.42,13.91,13.91,0,0,1-19.32,0,12.73,12.73,0,0,1-4-9.48,13.28,13.28,0,0,1,3.91-9.63,12.77,12.77,0,0,1,9.52-4,13.57,13.57,0,0,1,9.83,4A13.06,13.06,0,0,1,82.54,136.86Zm-4.1,0a9.37,9.37,0,0,0-2.7-6.76,8.83,8.83,0,0,0-6.58-2.8,9.5,9.5,0,0,0-6.8,2.69,8.72,8.72,0,0,0-2.81,6.54,9.29,9.29,0,0,0,2.73,6.68A8.86,8.86,0,0,0,68.89,146a9.5,9.5,0,0,0,6.71-2.66A8.54,8.54,0,0,0,78.44,136.86Z" style="fill:#ff715b"/><path d="M38.37,211a4.61,4.61,0,0,1-2.82,1.62,18.61,18.61,0,0,1-4.06.42h-1.7a14.1,14.1,0,0,1-7.23-1.86,11.73,11.73,0,0,1-4.83-5.46,16.36,16.36,0,0,1-1.26-6.17,13.61,13.61,0,0,1,1.12-5.46,12.7,12.7,0,0,1,3.25-4.45A11.62,11.62,0,0,1,25.59,187a21.4,21.4,0,0,1,5.68-.71A13.74,13.74,0,0,1,37.93,188v4.37a4.17,4.17,0,0,1-2-.72,11.28,11.28,0,0,0-2.37-1,13.56,13.56,0,0,0-2.62-.18,11.83,11.83,0,0,0-3.83.62,8.3,8.3,0,0,0-3.16,2,10.19,10.19,0,0,0-2.73,6.77,9.68,9.68,0,0,0,1.75,5.46,10,10,0,0,0,1,1.09c.38.36.82.75,1.33,1.15a10.41,10.41,0,0,0,5.46,1.52,11.11,11.11,0,0,0,4-.78,23,23,0,0,1,2.68-1.83,1.54,1.54,0,0,1,.93-.12Z" style="fill:#f9cb40"/><path d="M82.54,200a12.65,12.65,0,0,1-4,9.42,13.91,13.91,0,0,1-19.32,0,12.71,12.71,0,0,1-4-9.47,13.3,13.3,0,0,1,3.91-9.64,12.76,12.76,0,0,1,9.52-4,13.6,13.6,0,0,1,9.83,4A13.06,13.06,0,0,1,82.54,200Zm-4.1,0a9.39,9.39,0,0,0-2.7-6.76,8.82,8.82,0,0,0-6.58-2.79,9.49,9.49,0,0,0-6.8,2.68,8.73,8.73,0,0,0-2.81,6.54,9.29,9.29,0,0,0,2.73,6.68,8.86,8.86,0,0,0,6.61,2.82,9.46,9.46,0,0,0,6.71-2.66A8.54,8.54,0,0,0,78.44,200Z" style="fill:#f9cb40"/><path d="M125.87,48.42A16.35,16.35,0,1,1,151.66,35.8" style="fill:none;stroke:#f9cb40;stroke-linecap:round;stroke-miterlimit:10;stroke-width:3px"/></g></svg>