<svg xmlns="http://www.w3.org/2000/svg" xmlns:xlink="http://www.w3.org/1999/xlink" width="441.57" height="457.58" viewBox="0 0 441.57 457.58"><defs><linearGradient id="aee1ab49-0745-407f-ac06-09228f48e025" x1="252.98" y1="62.62" x2="344.17" y2="313.17" gradientUnits="userSpaceOnUse"><stop offset="0" stop-color="#ff715b"/><stop offset="0.25" stop-color="#fd715b"/><stop offset="0.35" stop-color="#f6705b"/><stop offset="0.42" stop-color="#ea6e5b"/><stop offset="0.48" stop-color="#d96c5b"/><stop offset="0.53" stop-color="#c36a5b"/><stop offset="0.57" stop-color="#a7665b"/><stop offset="0.61" stop-color="#86625c"/><stop offset="0.64" stop-color="#615e5c"/><stop offset="0.66" stop-color="#4c5b5c"/></linearGradient></defs><g id="b06cdaaf-a2cf-43d3-ae81-639ad3438400" data-name="Calque 2"><path d="M225.06,342.36c-8.19-17.61-14.3-31-19.91-43.11-6.25-13.55,17.67-26.27,24.64-11.37,5.66,12.1,16.41,36,19.9,43.11C256.92,345.63,231.32,355.83,225.06,342.36Z" style="fill:#4c5b5c"/><path d="M261.85,328.26c-10-21.67-17.45-38.11-24.29-53-7.63-16.66,16.1-29.79,24.6-11.46,6.9,14.89,20.07,44.31,24.29,53C295.18,334.84,269.49,344.82,261.85,328.26Z" style="fill:#4c5b5c"/><path d="M295.07,307.18c-10.08-21.9-17.63-38.5-24.54-53.57-7.71-16.84,16-30,24.6-11.47,7,15,20.27,44.76,24.53,53.57C328.48,314,302.78,323.91,295.07,307.18Z" style="fill:#4c5b5c"/><path d="M217,350.79c28.42,53.08,26.36,77.22,54.7,89,28.9,13.53,63.63-12.59,104.06-31,25.64-20.81,39.35-70.66,48.29-89.43,7.73-24.66,17.49-61.47,17.49-61.47s-20.31-7.23-31.92,1.57S371.4,315,371.4,315s-31,7-42.34,26.7-2.72,45.11-5.59,47.93a6.34,6.34,0,0,1-7.43,1.39c-8.34-4.07-5.68-40.92,4.83-58.2s44.33-28,44.33-28l-5.61-12.66-24.78,12.92a31.86,31.86,0,0,1-12,18.14c-10,7.18-23.35,3.74-23.35,3.74s.54,12.17-15,19.67-23.65-2.56-23.65-2.56-2,10.63-17.37,14.66S216.05,348.57,217,350.79Z" style="fill:#4c5b5c"/></g><g id="a79b051a-3513-4b38-9a2f-58bf0e9d9926" data-name="Calque 3"><path d="M226.72,113.67a51.78,51.78,0,1,1,67.77-32.38" style="fill:none;stroke:#f9cb40;stroke-linecap:round;stroke-miterlimit:10;stroke-width:7.2733061364023115px"/><path d="M244.76,65.64c-6.69,3.53-4.89,42.87-5.13,74.25-.35,43.7-2.12,81.22,4.62,82.49,9.17,1.74,15.36-6.35,21.5-12.61,9.82-10,18.89-20.12,18.89-20.12,5.17,12.28,44.71,103.08,50.17,115.5,4.65,10.58,10.63,8,17.79,4.62,5.67-2.69,11.69-8.62,7-17.54-6.35-12.11-47.14-100.63-52-111.58,0,0,15.76-1.39,31.52-2.81,10.68-1,21.13,1.07,21.13-7.24,0-7.5-22.52-24.73-49.76-51.49C285.1,94.13,252.86,61.37,244.76,65.64Z" style="fill:url(#aee1ab49-0745-407f-ac06-09228f48e025)"/><path d="M70.79,157.58H62.55V128.76a15.81,15.81,0,0,0-3.21-7.87,8.16,8.16,0,0,0-6.71-3.32,31.81,31.81,0,0,0-3.86.6,10.09,10.09,0,0,0-5.8,3.71,13.85,13.85,0,0,0-3.16,7.68v28h-8V80.14h8v38.42a17.88,17.88,0,0,1,6.4-5.73,17,17,0,0,1,8-2,18.41,18.41,0,0,1,13,5.35,19.24,19.24,0,0,1,3.58,11.59Z" style="fill:#4c5b5c"/><path d="M146.24,157.58h-7.45v-9.13a17.71,17.71,0,0,1-7.54,7.67,22,22,0,0,1-10.62,2.75,24.21,24.21,0,0,1-5.37-.59,23.2,23.2,0,0,1-6.55-3.09q-4-2.49-7.1-8.36a26.37,26.37,0,0,1-.75-23.37,36.58,36.58,0,0,1,5.48-7.51c2.53-2.82,6.21-4.66,11-5.53a15.46,15.46,0,0,0,1.73-.1c.63-.06,1.11-.09,1.43-.09a20.9,20.9,0,0,1,10.13,2.48A21.66,21.66,0,0,1,138.4,120v-8.53h7.84Zm-9.33-14.65a21.67,21.67,0,0,0,1.49-8,19.36,19.36,0,0,0-2.58-10,15.3,15.3,0,0,0-7.72-6.49,19.41,19.41,0,0,0-4.35-.6c-1.72-.07-2.71-.1-3-.1A15.18,15.18,0,0,0,110.59,124a19,19,0,0,0-3.86,11.53A15.82,15.82,0,0,0,113.36,149a14.29,14.29,0,0,0,9.3,3,15.28,15.28,0,0,0,14.25-9.09Z" style="fill:#4c5b5c"/><path d="M83.89,272.45H75.45V238.93a4.33,4.33,0,0,0-.59-2c-.4-.73-.7-1.29-.9-1.69a10.21,10.21,0,0,0-3.27-2.3,9.4,9.4,0,0,0-3.58-.7,10.4,10.4,0,0,0-7.15,3,13.88,13.88,0,0,0-4.26,7.38v29.83H47.46V241.3a11.07,11.07,0,0,0-3.16-6.62,8.91,8.91,0,0,0-6.37-2.44,13.33,13.33,0,0,0-3.81.6,12.23,12.23,0,0,0-4.51,3.29,15.14,15.14,0,0,0-2.9,5.07v31.25H19.06V226.29h7.65v7.94a19.51,19.51,0,0,1,5.44-6.48,12.29,12.29,0,0,1,7.62-2.56h1.49A12.65,12.65,0,0,1,49.32,228a15.73,15.73,0,0,1,5.1,7.25,15.64,15.64,0,0,1,6.1-7.29,16.57,16.57,0,0,1,9.18-2.74,15.32,15.32,0,0,1,6.6,1.44,14.24,14.24,0,0,1,5.31,4.52,10.19,10.19,0,0,1,2.28,5.06Z" style="fill:#ff715b"/><path d="M149.22,249.72a23,23,0,0,1-7.3,17.12,25.29,25.29,0,0,1-35.14,0,23.11,23.11,0,0,1-7.3-17.22,24.23,24.23,0,0,1,7.1-17.53,23.24,23.24,0,0,1,17.32-7.29A24.7,24.7,0,0,1,141.77,232,23.74,23.74,0,0,1,149.22,249.72Zm-7.45,0a17.05,17.05,0,0,0-4.91-12.29,16,16,0,0,0-12-5.09,17.24,17.24,0,0,0-12.36,4.89,15.82,15.82,0,0,0-5.11,11.89,16.87,16.87,0,0,0,5,12.14,16.09,16.09,0,0,0,12,5.14,17.28,17.28,0,0,0,12.21-4.84A15.6,15.6,0,0,0,141.77,249.72Z" style="fill:#ff715b"/><path d="M68.9,384.51a8.43,8.43,0,0,1-5.11,2.95,34.62,34.62,0,0,1-7.4.75H53.31a25.67,25.67,0,0,1-13.15-3.37,21.36,21.36,0,0,1-8.79-9.93,29.83,29.83,0,0,1-2.28-11.22,24.74,24.74,0,0,1,2-9.93A23.05,23.05,0,0,1,37,345.67,21.33,21.33,0,0,1,45.67,341,39.42,39.42,0,0,1,56,339.67a25,25,0,0,1,12.12,3.07v7.95c-.6.13-1.84-.3-3.73-1.3a19.65,19.65,0,0,0-4.32-1.84,24.17,24.17,0,0,0-4.76-.34,21,21,0,0,0-6.95,1.14A15.12,15.12,0,0,0,42.59,352a18.55,18.55,0,0,0-5,12.31,17.71,17.71,0,0,0,3.17,9.93,20.78,20.78,0,0,0,1.84,2c.7.66,1.51,1.36,2.43,2.09A18.8,18.8,0,0,0,55,381.07a20.41,20.41,0,0,0,7.35-1.42,40.53,40.53,0,0,1,4.86-3.34,2.77,2.77,0,0,1,1.69-.21Z" style="fill:#f9cb40"/><path d="M149.22,364.59a23,23,0,0,1-7.3,17.12,25.29,25.29,0,0,1-35.14,0,23.11,23.11,0,0,1-7.3-17.22,24.23,24.23,0,0,1,7.1-17.53,23.24,23.24,0,0,1,17.32-7.29,24.7,24.7,0,0,1,17.87,7.24A23.74,23.74,0,0,1,149.22,364.59Zm-7.45,0a17,17,0,0,0-4.91-12.28,16,16,0,0,0-12-5.09,17.24,17.24,0,0,0-12.36,4.89A15.82,15.82,0,0,0,107.42,364a16.87,16.87,0,0,0,5,12.14,16.09,16.09,0,0,0,12,5.14,17.28,17.28,0,0,0,12.21-4.84A15.62,15.62,0,0,0,141.77,364.58Z" style="fill:#f9cb40"/><path d="M228,88.91A29.73,29.73,0,1,1,274.91,66" style="fill:none;stroke:#f9cb40;stroke-linecap:round;stroke-miterlimit:10;stroke-width:5.454979602301734px"/></g></svg>